<?xml version="1.0" encoding="iso-8859-1"?>
<!-- Generator: Adobe Illustrator 18.1.1, SVG Export Plug-In . SVG Version: 6.00 Build 0)  -->
<svg version="1.1" id="Capa_1" xmlns="http://www.w3.org/2000/svg" xmlns:xlink="http://www.w3.org/1999/xlink" x="0px" y="0px"
	 viewBox="0 0 37.463 37.463" style="enable-background:new 0 0 37.463 37.463;" xml:space="preserve">
<g>
	<path fill="#ffffff" style="fill:#010002;" d="M36.355,29.542L36.355,29.542v-7.679l-1.01-6.055h-9.622l3.126,2.338v3.704l-2.018-1.493v0.735
		h-0.599v8.448h-0.624v-9.257h0.599v-1.112h-0.925l-7.014-5.162l-6.774,5.287h-0.821v1.114h0.675v9.131H10.69v-8.322h-0.675v-0.466
		l-1.434,1.191v-3.779l2.873-2.356H1.502l-1.01,6.055v7.678H0v2.902h37.463v-2.902H36.355z M4.93,28.044H1.583v-1.832H4.93V28.044z
		 M4.93,25.118H1.583v-1.83H4.93V25.118z M6.318,28.044v-1.832h3.346v1.832H6.318z M6.319,25.118v-1.83h3.346v1.83H6.319z
		 M18.396,16.278c0.733,0,1.326,0.595,1.326,1.326c0,0.731-0.593,1.326-1.326,1.326c-0.732,0-1.326-0.595-1.326-1.326
		C17.07,16.873,17.664,16.278,18.396,16.278z M23.784,29.54h-0.735v-8.358h-9.507v8.358h-0.666v-9.131h0.64v-0.43h9.852v0.304h0.416
		V29.54z M30.186,27.854H26.84v-1.832h3.346V27.854z M30.186,24.927H26.84v-1.83h3.346V24.927z M34.921,27.854h-3.346v-1.832h3.346
		V27.854z M34.921,24.927h-3.346v-1.83h3.346V24.927z M18.295,10.875h-0.204V5.41h0.427v0.104c0.468,0.204,1.601,0.591,2.239-0.101
		c0.817-0.885,2.248,0,2.248,0v2.522c0,0-1.158-0.953-2.248,0c-0.829,0.724-1.814,0.347-2.239,0.124v2.815v0.001h-0.221l9.928,7.425
		v2.111l-10.042-7.427l-8.945,7.427V18.3L18.295,10.875z"/>
</g>
<g>
</g>
<g>
</g>
<g>
</g>
<g>
</g>
<g>
</g>
<g>
</g>
<g>
</g>
<g>
</g>
<g>
</g>
<g>
</g>
<g>
</g>
<g>
</g>
<g>
</g>
<g>
</g>
<g>
</g>
</svg>
